<?xml version="1.0" encoding="UTF-8" standalone="no"?>
<svg
   xmlns:dc="http://purl.org/dc/elements/1.1/"
   xmlns:cc="http://creativecommons.org/ns#"
   xmlns:rdf="http://www.w3.org/1999/02/22-rdf-syntax-ns#"
   xmlns:svg="http://www.w3.org/2000/svg"
   xmlns="http://www.w3.org/2000/svg"
   viewBox="0 0 1122.52 793.70667"
   height="793.70667"
   width="1122.52"
   xml:space="preserve"
   id="svg2"
   version="1.1"><metadata
     id="metadata8"><rdf:RDF><cc:Work
         rdf:about=""><dc:format>image/svg+xml</dc:format><dc:type
           rdf:resource="http://purl.org/dc/dcmitype/StillImage" /></cc:Work></rdf:RDF></metadata><defs
     id="defs6"><clipPath
       id="clipPath18"
       clipPathUnits="userSpaceOnUse"><path
         id="path16"
         d="M 0,595.28 H 841.89 V 0 H 0 Z" /></clipPath></defs><g
     transform="matrix(1.3333333,0,0,-1.3333333,0,793.70667)"
     id="g10"><g
       id="g12"><g
         clip-path="url(#clipPath18)"
         id="g14"><g
           transform="translate(495.2526,470.19)"
           id="g20"><path
             id="path22"
             style="fill:#90b94b;fill-opacity:1;fill-rule:nonzero;stroke:none"
             d="M 0,0 8.944,21.784 C -8.442,29.318 -26.95,34.562 -46.15,37.201 L -49.143,13.894 C -32.014,11.503 -15.504,6.772 0,0" /></g><g
           transform="translate(345.5422,470.5021)"
           id="g24"><path
             id="path26"
             style="fill:#d9a53a;fill-opacity:1;fill-rule:nonzero;stroke:none"
             d="M 0,0 -9.063,21.677 C -26.881,14.043 -43.337,4.078 -58.1,-7.793 l 14.391,-18.629 C -30.555,-15.781 -15.886,-6.846 0,0" /></g><g
           transform="translate(446.1097,484.0843)"
           id="g28"><path
             id="path30"
             style="fill:#cdcc3d;fill-opacity:1;fill-rule:nonzero;stroke:none"
             d="m 0,0 2.992,23.306 c -18.596,2.56 -37.838,2.668 -57.344,0.032 L -51.214,0.085 C -33.799,2.435 -16.612,2.321 0,0" /></g><g
           transform="translate(394.3117,484.0964)"
           id="g32"><path
             id="path34"
             style="fill:#d4ba3c;fill-opacity:1;fill-rule:nonzero;stroke:none"
             d="M 0,0 C 0.196,0.025 0.391,0.045 0.584,0.073 L -2.554,23.326 C -2.771,23.298 -2.991,23.273 -3.211,23.245 -22.482,20.583 -40.778,15.397 -57.833,8.083 l 9.063,-21.677 C -33.544,-7.031 -17.206,-2.377 0,0" /></g><g
           transform="translate(266.976,407.128)"
           id="g36"><path
             id="path38"
             style="fill:#e47c38;fill-opacity:1;fill-rule:nonzero;stroke:none"
             d="M 0,0 -18.744,14.283 C -29.782,-1.01 -38.796,-17.774 -45.464,-35.582 l 21.789,-8.94 C -17.784,-28.637 -9.798,-13.662 0,0" /></g><g
           transform="translate(243.3015,362.6056)"
           id="g40"><path
             id="path42"
             style="fill:#e66a38;fill-opacity:1;fill-rule:nonzero;stroke:none"
             d="M 0,0 -21.789,8.94 C -28.296,-8.438 -32.568,-26.807 -34.3,-45.772 l 23.321,-2.99 C -9.501,-31.873 -5.749,-15.498 0,0" /></g><g
           transform="translate(301.8331,444.0805)"
           id="g44"><path
             id="path46"
             style="fill:#df9039;fill-opacity:1;fill-rule:nonzero;stroke:none"
             d="m 0,0 -14.391,18.629 c -14.9,-11.98 -28.085,-25.887 -39.21,-41.299 l 18.744,-14.283 C -24.976,-23.172 -13.254,-10.725 0,0" /></g><g
           transform="translate(606.8276,323.1751)"
           id="g48"><path
             id="path50"
             style="fill:#009957;fill-opacity:1;fill-rule:nonzero;stroke:none"
             d="m 0,0 c 0.385,-2.785 0.695,-5.564 0.954,-8.337 l 23.266,3.14 C 23.947,-2.4 23.634,0.404 23.246,3.209 21.038,19.178 17.097,34.482 11.656,48.958 L -10.033,39.893 C -5.335,27.247 -1.922,13.907 0,0" /></g><g
           transform="translate(605.9724,265.9358)"
           id="g52"><path
             id="path54"
             style="fill:#0087a4;fill-opacity:1;fill-rule:nonzero;stroke:none"
             d="m 0,0 23.331,-2.993 c 2.932,17.821 3.59,36.283 1.745,55.035 L 1.809,48.902 C 3.368,32.244 2.69,15.836 0,0" /></g><g
           transform="translate(596.7949,363.0677)"
           id="g56"><path
             id="path58"
             style="fill:#009154;fill-opacity:1;fill-rule:nonzero;stroke:none"
             d="M 0,0 21.689,9.066 C 14.99,26.896 5.999,43.465 -4.88,58.488 L -23.513,44.096 C -13.863,30.681 -5.906,15.894 0,0" /></g><g
           transform="translate(538.6521,443.7999)"
           id="g60"><path
             id="path62"
             style="fill:#5ba450;fill-opacity:1;fill-rule:nonzero;stroke:none"
             d="M 0,0 14.284,18.743 C -0.53,30.649 -16.92,40.58 -34.456,48.174 L -43.4,26.39 C -27.778,19.566 -13.183,10.668 0,0" /></g><g
           transform="translate(573.2819,407.1639)"
           id="g64"><path
             id="path66"
             style="fill:#009b56;fill-opacity:1;fill-rule:nonzero;stroke:none"
             d="M 0,0 18.633,14.392 C 7.482,29.792 -5.652,43.563 -20.346,55.379 L -34.63,36.636 C -21.564,26.064 -9.894,13.753 0,0" /></g><g
           transform="translate(532.236,145.9077)"
           id="g68"><path
             id="path70"
             style="fill:#384983;fill-opacity:1;fill-rule:nonzero;stroke:none"
             d="M 0,0 14.387,-18.625 C 28.855,-7.845 41.839,4.713 53.058,18.668 L 34.316,32.952 C 24.342,20.621 12.826,9.527 0,0" /></g><g
           transform="translate(445.9049,110.6594)"
           id="g72"><path
             id="path74"
             style="fill:#3f3e80;fill-opacity:1;fill-rule:nonzero;stroke:none"
             d="m 0,0 c -0.18,-0.025 -0.358,-0.043 -0.537,-0.068 l 3.139,-23.255 c 0.202,0.027 0.405,0.048 0.609,0.079 17.886,2.469 34.936,7.109 50.933,13.607 L 45.081,12.045 C 30.912,6.294 15.822,2.185 0,0" /></g><g
           transform="translate(398.1684,110.1472)"
           id="g76"><path
             id="path78"
             style="fill:#623d83;fill-opacity:1;fill-rule:nonzero;stroke:none"
             d="m 0,0 -2.992,-23.302 c 17.346,-2.042 35.227,-1.957 53.331,0.491 L 47.199,0.444 C 31.186,-1.723 15.36,-1.8 0,0" /></g><g
           transform="translate(490.9861,122.7041)"
           id="g80"><path
             id="path82"
             style="fill:#3d417e;fill-opacity:1;fill-rule:nonzero;stroke:none"
             d="m 0,0 9.063,-21.682 c 16.778,6.818 32.389,15.69 46.574,26.261 L 41.25,23.204 C 28.675,13.863 14.848,6.024 0,0" /></g><g
           transform="translate(605.9724,265.9358)"
           id="g84"><path
             id="path86"
             style="fill:#006f9b;fill-opacity:1;fill-rule:nonzero;stroke:none"
             d="m 0,0 c -2.739,-16.134 -7.562,-31.67 -14.212,-46.287 l 21.789,-8.945 c 7.411,16.496 12.763,34.031 15.754,52.239 z" /></g><g
           transform="translate(566.5525,178.8599)"
           id="g88"><path
             id="path90"
             style="fill:#29598a;fill-opacity:1;fill-rule:nonzero;stroke:none"
             d="M 0,0 18.741,-14.284 C 30.052,-0.212 39.563,15.295 46.997,31.844 L 25.208,40.789 C 18.554,26.152 10.067,12.446 0,0" /></g><g
           transform="translate(275.2513,176.867)"
           id="g92"><path
             id="path94"
             style="fill:#d03547;fill-opacity:1;fill-rule:nonzero;stroke:none"
             d="M 0,0 -18.643,-14.401 C -7.076,-28.391 6.206,-40.817 20.85,-51.384 l 14.285,18.74 C 22.124,-23.316 10.306,-12.346 0,0" /></g><g
           transform="translate(352.2355,121.5754)"
           id="g96"><path
             id="path98"
             style="fill:#a23892;fill-opacity:1;fill-rule:nonzero;stroke:none"
             d="m 0,0 -8.937,-21.774 c 16.488,-6.427 33.892,-10.84 51.878,-12.956 l 2.992,23.302 C 30.019,-9.562 14.61,-5.669 0,0" /></g><g
           transform="translate(234.5354,264.4142)"
           id="g100"><path
             id="path102"
             style="fill:#ed3d38;fill-opacity:1;fill-rule:nonzero;stroke:none"
             d="m 0,0 -23.275,-3.139 c 3.201,-18.581 8.75,-36.207 16.302,-52.609 l 21.693,9.067 C 7.924,-32.127 2.92,-16.486 0,0" /></g><g
           transform="translate(249.2552,217.7336)"
           id="g104"><path
             id="path106"
             style="fill:#ea3639;fill-opacity:1;fill-rule:nonzero;stroke:none"
             d="m 0,0 -21.693,-9.067 c 7.718,-16.771 17.523,-32.261 29.046,-46.2 l 18.643,14.4 C 15.705,-28.537 6.926,-14.836 0,0" /></g><g
           transform="translate(233.39,271.581)"
           id="g108"><path
             id="path110"
             style="fill:#e85a38;fill-opacity:1;fill-rule:nonzero;stroke:none"
             d="m 0,0 c -1.975,14.299 -2.279,28.454 -1.068,42.263 l -23.32,2.989 c -1.444,-15.82 -1.125,-32.053 1.143,-48.463 0.328,-2.383 0.711,-4.744 1.115,-7.095 L 1.145,-7.167 C 0.727,-4.793 0.332,-2.407 0,0" /></g><g
           transform="translate(310.3863,144.2227)"
           id="g112"><path
             id="path114"
             style="fill:#bc3571;fill-opacity:1;fill-rule:nonzero;stroke:none"
             d="M 0,0 -14.285,-18.74 C 0.242,-29.223 16.098,-37.867 32.912,-44.421 l 8.937,21.774 C 26.954,-16.866 12.894,-9.241 0,0" /></g><g
           transform="translate(354.5927,448.8517)"
           id="g116"><path
             id="path118"
             style="fill:#f2b633;fill-opacity:1;fill-rule:nonzero;stroke:none"
             d="M 0,0 -9.05,21.65 C -24.936,14.804 -39.605,5.869 -52.76,-4.771 l 14.342,-18.564 C -26.868,-13.935 -13.971,-6.05 0,0" /></g><g
           transform="translate(316.1746,425.5166)"
           id="g120"><path
             id="path122"
             style="fill:#f9a133;fill-opacity:1;fill-rule:nonzero;stroke:none"
             d="M 0,0 -14.341,18.564 C -27.595,7.839 -39.317,-4.609 -49.199,-18.389 l 18.666,-14.225 C -21.891,-20.46 -11.629,-9.467 0,0" /></g><g
           transform="translate(285.6419,392.9021)"
           id="g124"><path
             id="path126"
             style="fill:#f68835;fill-opacity:1;fill-rule:nonzero;stroke:none"
             d="M 0,0 -18.666,14.226 C -28.464,0.564 -36.449,-14.411 -42.34,-30.297 l 21.72,-8.916 C -15.514,-25.225 -8.557,-12.041 0,0" /></g><g
           transform="translate(397.5203,460.853)"
           id="g128"><path
             id="path130"
             style="fill:#eece31;fill-opacity:1;fill-rule:nonzero;stroke:none"
             d="M 0,0 C 0.171,0.025 0.345,0.04 0.516,0.064 L -2.625,23.317 C -2.818,23.288 -3.012,23.268 -3.209,23.243 -20.415,20.867 -36.752,16.213 -51.978,9.649 l 9.05,-21.65 C -29.532,-6.203 -15.148,-2.095 0,0" /></g><g
           transform="translate(256.6342,274.7934)"
           id="g132"><path
             id="path134"
             style="fill:#f2653a;fill-opacity:1;fill-rule:nonzero;stroke:none"
             d="m 0,0 c -1.686,12.195 -1.974,24.268 -1.009,36.06 l -23.303,2.99 c -1.211,-13.808 -0.908,-27.964 1.068,-42.262 0.331,-2.407 0.726,-4.793 1.145,-7.167 l 23.273,3.14 C 0.734,-4.845 0.335,-2.435 0,0" /></g><g
           transform="translate(265.022,353.6894)"
           id="g136"><path
             id="path138"
             style="fill:#f37439;fill-opacity:1;fill-rule:nonzero;stroke:none"
             d="m 0,0 -21.72,8.916 c -5.749,-15.498 -9.501,-31.873 -10.98,-48.761 l 23.303,-2.991 C -8.184,-28.006 -4.973,-13.623 0,0" /></g><g
           transform="translate(575.1244,354.0096)"
           id="g140"><path
             id="path142"
             style="fill:#00a258;fill-opacity:1;fill-rule:nonzero;stroke:none"
             d="M 0,0 21.67,9.058 C 15.765,24.952 7.807,39.739 -1.842,53.154 L -20.417,38.803 C -12.013,26.991 -5.104,13.977 0,0" /></g><g
           transform="translate(443.1248,460.8085)"
           id="g144"><path
             id="path146"
             style="fill:#e5e531;fill-opacity:1;fill-rule:nonzero;stroke:none"
             d="m 0,0 2.985,23.276 c -16.612,2.321 -33.799,2.435 -51.214,0.085 l 3.14,-23.253 C -29.758,2.177 -14.622,2.066 0,0" /></g><g
           transform="translate(554.7074,392.8127)"
           id="g148"><path
             id="path150"
             style="fill:#00ac58;fill-opacity:1;fill-rule:nonzero;stroke:none"
             d="M 0,0 18.575,14.351 C 8.68,28.105 -2.99,40.415 -16.055,50.987 L -30.28,32.325 C -18.838,22.991 -8.633,12.131 0,0" /></g><g
           transform="translate(583.5847,319.9659)"
           id="g152"><path
             id="path154"
             style="fill:#00a95f;fill-opacity:1;fill-rule:nonzero;stroke:none"
             d="m 0,0 c 0.384,-2.763 0.691,-5.519 0.931,-8.267 l 23.266,3.139 C 23.938,-2.354 23.628,0.424 23.243,3.209 21.32,17.116 17.908,30.456 13.21,43.102 L -8.46,34.044 C -4.516,23.234 -1.638,11.851 0,0" /></g><g
           transform="translate(486.342,448.4762)"
           id="g156"><path
             id="path158"
             style="fill:#a2cd48;fill-opacity:1;fill-rule:nonzero;stroke:none"
             d="M 0,0 8.911,21.714 C -6.593,28.486 -23.103,33.217 -40.232,35.608 L -43.217,12.332 C -28.148,10.205 -13.628,6 0,0" /></g><g
           transform="translate(524.427,425.1372)"
           id="g160"><path
             id="path162"
             style="fill:#66b651;fill-opacity:1;fill-rule:nonzero;stroke:none"
             d="M 0,0 14.225,18.663 C 1.042,29.33 -13.553,38.228 -29.174,45.053 L -38.085,23.339 C -24.366,17.3 -11.554,9.429 0,0" /></g><g
           transform="translate(361.1433,143.282)"
           id="g164"><path
             id="path166"
             style="fill:#ae3e95;fill-opacity:1;fill-rule:nonzero;stroke:none"
             d="m 0,0 -8.908,-21.707 c 14.61,-5.669 30.019,-9.561 45.933,-11.428 l 2.987,23.274 C 26.156,-8.258 12.732,-4.895 0,0" /></g><g
           transform="translate(517.8936,164.4722)"
           id="g168"><path
             id="path170"
             style="fill:#354e92;fill-opacity:1;fill-rule:nonzero;stroke:none"
             d="M 0,0 14.342,-18.565 C 27.168,-9.037 38.684,2.057 48.659,14.388 L 29.996,28.612 C 21.264,17.903 11.2,8.268 0,0" /></g><g
           transform="translate(570.0494,228.5584)"
           id="g172"><path
             id="path174"
             style="fill:#0079ad;fill-opacity:1;fill-rule:nonzero;stroke:none"
             d="m 0,0 21.711,-8.909 c 6.65,14.616 11.473,30.152 14.212,46.286 L 12.619,40.369 C 10.146,26.294 5.872,12.738 0,0" /></g><g
           transform="translate(547.8893,193.0839)"
           id="g176"><path
             id="path178"
             style="fill:#1a62a1;fill-opacity:1;fill-rule:nonzero;stroke:none"
             d="M 0,0 18.663,-14.224 C 28.73,-1.778 37.217,11.928 43.871,26.565 L 22.16,35.474 C 16.291,22.739 8.827,10.819 0,0" /></g><g
           transform="translate(584.5157,311.6994)"
           id="g180"><path
             id="path182"
             style="fill:#0095b5;fill-opacity:1;fill-rule:nonzero;stroke:none"
             d="m 0,0 c 1.276,-14.579 0.587,-28.927 -1.847,-42.772 l 23.304,-2.992 c 2.69,15.837 3.367,32.244 1.809,48.902 z" /></g><g
           transform="translate(257.808,267.5547)"
           id="g184"><path
             id="path186"
             style="fill:#ef483f;fill-opacity:1;fill-rule:nonzero;stroke:none"
             d="m 0,0 -23.273,-3.141 c 2.92,-16.486 7.924,-32.126 14.72,-46.68 l 21.672,9.059 C 7.1,-28.061 2.638,-14.402 0,0" /></g><g
           transform="translate(481.9329,144.3563)"
           id="g188"><path
             id="path190"
             style="fill:#3d438b;fill-opacity:1;fill-rule:nonzero;stroke:none"
             d="m 0,0 9.053,-21.652 c 14.848,6.024 28.675,13.862 41.25,23.203 L 35.961,20.116 C 24.99,12.015 12.933,5.227 0,0" /></g><g
           transform="translate(324.6131,162.8924)"
           id="g192"><path
             id="path194"
             style="fill:#d1337b;fill-opacity:1;fill-rule:nonzero;stroke:none"
             d="m 0,0 -14.227,-18.67 c 12.894,-9.241 26.954,-16.866 41.849,-22.647 L 36.53,-19.61 C 23.537,-14.615 11.268,-8.006 0,0" /></g><g
           transform="translate(293.8289,191.2197)"
           id="g196"><path
             id="path198"
             style="fill:#eb344f;fill-opacity:1;fill-rule:nonzero;stroke:none"
             d="M 0,0 -18.578,-14.353 C -8.272,-26.699 3.547,-37.669 16.557,-46.997 l 14.227,18.67 C 19.4,-20.239 9.043,-10.724 0,0" /></g><g
           transform="translate(270.9268,226.7925)"
           id="g200"><path
             id="path202"
             style="fill:#ee3d41;fill-opacity:1;fill-rule:nonzero;stroke:none"
             d="m 0,0 -21.672,-9.059 c 6.926,-14.836 15.706,-28.537 25.997,-40.867 l 18.577,14.353 C 13.855,-24.848 6.124,-12.919 0,0" /></g><g
           transform="translate(401.1551,133.4207)"
           id="g204"><path
             id="path206"
             style="fill:#6c3d8f;fill-opacity:1;fill-rule:nonzero;stroke:none"
             d="m 0,0 -2.987,-23.274 c 15.36,-1.8 31.186,-1.722 47.2,0.444 L 41.075,0.422 C 27.142,-1.464 13.371,-1.547 0,0" /></g><g
           transform="translate(442.6923,133.9026)"
           id="g208"><path
             id="path210"
             style="fill:#3f3f8a;fill-opacity:1;fill-rule:nonzero;stroke:none"
             d="m 0,0 c -0.155,-0.021 -0.308,-0.041 -0.462,-0.06 l 3.137,-23.251 c 0.179,0.025 0.358,0.042 0.538,0.068 15.822,2.184 30.912,6.294 45.081,12.044 L 39.241,10.454 C 26.905,5.469 13.768,1.902 0,0" /></g><g
           transform="translate(330.5235,406.94)"
           id="g212"><path
             id="path214"
             style="fill:#fbab32;fill-opacity:1;fill-rule:nonzero;stroke:none"
             d="M 0,0 -14.349,18.577 C -25.978,9.109 -36.24,-1.883 -44.882,-14.038 l 18.665,-14.228 C -18.816,-17.732 -10.003,-8.207 0,0" /></g><g
           transform="translate(363.6413,427.2029)"
           id="g216"><path
             id="path218"
             style="fill:#ffc72c;fill-opacity:1;fill-rule:nonzero;stroke:none"
             d="M 0,0 -9.049,21.649 C -23.02,15.599 -35.917,7.714 -47.467,-1.686 l 14.349,-18.577 C -23.172,-12.104 -12.056,-5.249 0,0" /></g><g
           transform="translate(400.7327,437.6088)"
           id="g220"><path
             id="path222"
             style="fill:#ffe221;fill-opacity:1;fill-rule:nonzero;stroke:none"
             d="M 0,0 C 0.149,0.021 0.293,0.037 0.442,0.055 L -2.696,23.308 C -2.867,23.285 -3.042,23.269 -3.212,23.244 -18.361,21.149 -32.744,17.042 -46.14,11.243 l 9.049,-21.649 C -25.522,-5.373 -13.095,-1.81 0,0" /></g><g
           transform="translate(304.3066,378.6739)"
           id="g224"><path
             id="path226"
             style="fill:#f79137;fill-opacity:1;fill-rule:nonzero;stroke:none"
             d="m 0,0 -18.665,14.228 c -8.557,-12.041 -15.514,-25.224 -20.62,-39.213 l 21.72,-8.912 C -13.245,-21.811 -7.316,-10.411 0,0" /></g><g
           transform="translate(286.7419,344.7767)"
           id="g228"><path
             id="path230"
             style="fill:#f47d3b;fill-opacity:1;fill-rule:nonzero;stroke:none"
             d="m 0,0 -21.72,8.913 c -4.973,-13.623 -8.184,-28.007 -9.397,-42.836 l 23.302,-2.993 C -6.87,-24.143 -4.198,-11.748 0,0" /></g><g
           transform="translate(279.8765,278.0052)"
           id="g232"><path
             id="path234"
             style="fill:#f26b3d;fill-opacity:1;fill-rule:nonzero;stroke:none"
             d="m 0,0 c -1.395,10.091 -1.674,20.083 -0.95,29.856 l -23.301,2.992 c -0.965,-11.791 -0.677,-23.864 1.009,-36.06 0.335,-2.434 0.733,-4.844 1.173,-7.238 L 1.204,-7.311 C 0.743,-4.897 0.339,-2.462 0,0" /></g><g
           transform="translate(536.1309,378.4598)"
           id="g236"><path
             id="path238"
             style="fill:#00ae57;fill-opacity:1;fill-rule:nonzero;stroke:none"
             d="M 0,0 18.577,14.353 C 9.943,26.483 -0.262,37.344 -11.704,46.677 L -25.926,28.015 C -16.113,19.92 -7.37,10.511 0,0" /></g><g
           transform="translate(440.1363,437.5273)"
           id="g240"><path
             id="path242"
             style="fill:#f7eb26;fill-opacity:1;fill-rule:nonzero;stroke:none"
             d="m 0,0 2.988,23.281 c -14.622,2.067 -29.757,2.177 -45.088,0.108 L -38.961,0.137 C -25.71,1.925 -12.631,1.811 0,0" /></g><g
           transform="translate(281.0805,270.6943)"
           id="g244"><path
             id="path246"
             style="fill:#f04f41;fill-opacity:1;fill-rule:nonzero;stroke:none"
             d="m 0,0 -23.273,-3.14 c 2.638,-14.401 7.101,-28.061 13.119,-40.762 l 21.682,9.065 C 6.283,-23.986 2.357,-12.318 0,0" /></g><g
           transform="translate(553.453,344.9517)"
           id="g248"><path
             id="path250"
             style="fill:#00a85a;fill-opacity:1;fill-rule:nonzero;stroke:none"
             d="M 0,0 21.671,9.058 C 16.567,23.035 9.658,36.049 1.254,47.861 L -17.322,33.508 C -10.163,23.303 -4.3,12.064 0,0" /></g><g
           transform="translate(510.2051,406.4748)"
           id="g252"><path
             id="path254"
             style="fill:#73c050;fill-opacity:1;fill-rule:nonzero;stroke:none"
             d="m 0,0 14.222,18.662 c -11.554,9.429 -24.366,17.3 -38.085,23.339 l -8.908,-21.71 C -20.956,15.031 -9.928,8.194 0,0" /></g><g
           transform="translate(477.4338,426.7657)"
           id="g256"><path
             id="path258"
             style="fill:#b7d442;fill-opacity:1;fill-rule:nonzero;stroke:none"
             d="M 0,0 8.908,21.711 C -4.72,27.71 -19.24,31.916 -34.309,34.043 L -37.297,10.762 C -24.286,8.899 -11.755,5.23 0,0" /></g><g
           transform="translate(370.0505,164.9838)"
           id="g260"><path
             id="path262"
             style="fill:#b84798;fill-opacity:1;fill-rule:nonzero;stroke:none"
             d="m 0,0 -8.907,-21.702 c 12.732,-4.895 26.156,-8.258 40.012,-9.861 l 2.986,23.279 C 22.293,-6.941 10.854,-4.124 0,0" /></g><g
           transform="translate(529.2291,207.3077)"
           id="g264"><path
             id="path266"
             style="fill:#0069ad;fill-opacity:1;fill-rule:nonzero;stroke:none"
             d="M 0,0 18.66,-14.224 C 27.488,-3.405 34.951,8.515 40.82,21.251 L 19.094,30.166 C 14.01,19.333 7.583,9.196 0,0" /></g><g
           transform="translate(472.8826,166.0083)"
           id="g268"><path
             id="path270"
             style="fill:#3a4794;fill-opacity:1;fill-rule:nonzero;stroke:none"
             d="m 0,0 9.05,-21.652 c 12.933,5.227 24.99,12.015 35.961,20.116 L 30.664,17.038 C 21.297,10.178 11.02,4.428 0,0" /></g><g
           transform="translate(548.3229,237.4742)"
           id="g272"><path
             id="path274"
             style="fill:#0095cb;fill-opacity:1;fill-rule:nonzero;stroke:none"
             d="m 0,0 21.726,-8.916 c 5.873,12.739 10.146,26.295 12.62,40.37 l -23.303,2.99 C 8.837,22.429 5.094,10.863 0,0" /></g><g
           transform="translate(503.5463,183.0463)"
           id="g276"><path
             id="path278"
             style="fill:#31529b;fill-opacity:1;fill-rule:nonzero;stroke:none"
             d="m 0,0 14.347,-18.574 c 11.201,8.268 21.265,17.903 29.996,28.612 L 25.683,24.261 C 18.19,15.177 9.573,7.01 0,0" /></g><g
           transform="translate(292.6087,235.8572)"
           id="g280"><path
             id="path282"
             style="fill:#ef3f42;fill-opacity:1;fill-rule:nonzero;stroke:none"
             d="m 0,0 -21.682,-9.065 c 6.124,-12.919 13.855,-24.848 22.902,-35.572 l 18.575,14.346 C 11.995,-21.168 5.319,-11.005 0,0" /></g><g
           transform="translate(559.3663,271.9187)"
           id="g284"><path
             id="path286"
             style="fill:#00a3c7;fill-opacity:1;fill-rule:nonzero;stroke:none"
             d="m 0,0 23.303,-2.991 c 2.434,13.844 3.123,28.192 1.846,42.772 L 1.859,36.636 C 2.856,24.143 2.176,11.851 0,0" /></g><g
           transform="translate(575.1244,354.0096)"
           id="g288"><path
             id="path290"
             style="fill:#00a968;fill-opacity:1;fill-rule:nonzero;stroke:none"
             d="m 0,0 -21.671,-9.058 c 3.198,-8.971 5.534,-18.398 6.887,-28.196 0.379,-2.741 0.668,-5.475 0.885,-8.201 l 23.29,3.145 c -0.24,2.747 -0.547,5.504 -0.931,8.266 C 6.822,-22.193 3.945,-10.81 0,0" /></g><g
           transform="translate(338.8392,181.5563)"
           id="g292"><path
             id="path294"
             style="fill:#e33185;fill-opacity:1;fill-rule:nonzero;stroke:none"
             d="m 0,0 -14.226,-18.664 c 11.268,-8.005 23.537,-14.615 36.53,-19.61 l 8.907,21.701 C 20.118,-12.355 9.638,-6.769 0,0" /></g><g
           transform="translate(312.4038,205.5659)"
           id="g296"><path
             id="path298"
             style="fill:#ee3b59;fill-opacity:1;fill-rule:nonzero;stroke:none"
             d="m 0,0 -18.575,-14.346 c 9.043,-10.724 19.4,-20.239 30.784,-28.328 L 26.435,-24.01 C 16.678,-17.157 7.779,-9.097 0,0" /></g><g
           transform="translate(404.1415,156.7003)"
           id="g300"><path
             id="path302"
             style="fill:#753e95;fill-opacity:1;fill-rule:nonzero;stroke:none"
             d="m 0,0 -2.986,-23.28 c 13.371,-1.547 27.141,-1.463 41.074,0.423 L 34.95,0.393 C 23.097,-1.212 11.38,-1.292 0,0" /></g><g
           transform="translate(439.4824,157.1436)"
           id="g304"><path
             id="path306"
             style="fill:#4b3f93;fill-opacity:1;fill-rule:nonzero;stroke:none"
             d="m 0,0 c -0.13,-0.018 -0.26,-0.034 -0.391,-0.05 l 3.138,-23.251 c 0.155,0.019 0.308,0.039 0.463,0.06 13.768,1.902 26.905,5.468 39.241,10.454 L 33.4,8.865 C 22.893,4.643 11.712,1.617 0,0" /></g><g
           transform="translate(308.4719,335.8576)"
           id="g308"><path
             id="path310"
             style="fill:#f79241;fill-opacity:1;fill-rule:nonzero;stroke:none"
             d="m 0,0 -21.73,8.919 c -4.198,-11.748 -6.87,-24.143 -7.815,-36.915 l 23.311,-2.993 C -5.556,-20.275 -3.419,-9.869 0,0" /></g><g
           transform="translate(322.9745,364.4484)"
           id="g312"><path
             id="path314"
             style="fill:#f9a33e;fill-opacity:1;fill-rule:nonzero;stroke:none"
             d="M 0,0 -18.668,14.226 C -25.984,3.814 -31.913,-7.586 -36.233,-19.672 l 21.73,-8.919 C -10.973,-18.401 -6.075,-8.79 0,0" /></g><g
           transform="translate(303.1207,281.2176)"
           id="g316"><path
             id="path318"
             style="fill:#f48043;fill-opacity:1;fill-rule:nonzero;stroke:none"
             d="m 0,0 c -1.103,7.986 -1.373,15.9 -0.883,23.651 l -23.311,2.993 c -0.725,-9.774 -0.445,-19.765 0.95,-29.856 0.339,-2.462 0.743,-4.897 1.204,-7.311 L 1.265,-7.378 C 0.773,-4.945 0.345,-2.491 0,0" /></g><g
           transform="translate(304.3861,273.8399)"
           id="g320"><path
             id="path322"
             style="fill:#f16247;fill-opacity:1;fill-rule:nonzero;stroke:none"
             d="m 0,0 -23.306,-3.146 c 2.357,-12.318 6.284,-23.986 11.529,-34.837 l 21.686,9.065 C 5.438,-19.923 2.074,-10.232 0,0" /></g><g
           transform="translate(344.8754,388.3625)"
           id="g324"><path
             id="path326"
             style="fill:#fdb735;fill-opacity:1;fill-rule:nonzero;stroke:none"
             d="M 0,0 -14.352,18.577 C -24.355,10.37 -33.168,0.845 -40.569,-9.689 l 18.668,-14.225 C -15.745,-15.003 -8.378,-6.947 0,0" /></g><g
           transform="translate(495.979,387.8114)"
           id="g328"><path
             id="path330"
             style="fill:#8bc64c;fill-opacity:1;fill-rule:nonzero;stroke:none"
             d="M 0,0 14.226,18.663 C 4.298,26.858 -6.73,33.695 -18.545,38.954 l -8.91,-21.71 C -17.542,12.768 -8.301,6.957 0,0" /></g><g
           transform="translate(372.6909,405.554)"
           id="g332"><path
             id="path334"
             style="fill:#ffd034;fill-opacity:1;fill-rule:nonzero;stroke:none"
             d="M 0,0 -9.05,21.649 C -21.105,16.4 -32.222,9.545 -42.167,1.386 l 14.351,-18.577 C -19.478,-10.271 -10.142,-4.451 0,0" /></g><g
           transform="translate(314.2947,244.9223)"
           id="g336"><path
             id="path338"
             style="fill:#ef4b48;fill-opacity:1;fill-rule:nonzero;stroke:none"
             d="m 0,0 -21.686,-9.065 c 5.319,-11.005 11.995,-21.168 19.795,-30.291 l 18.596,14.37 C 10.152,-17.471 4.513,-9.091 0,0" /></g><g
           transform="translate(517.5336,364.0979)"
           id="g340"><path
             id="path342"
             style="fill:#3fb654;fill-opacity:1;fill-rule:nonzero;stroke:none"
             d="M 0,0 18.597,14.362 C 11.228,24.873 2.484,34.282 -7.328,42.377 L -21.555,23.714 C -13.371,16.853 -6.103,8.88 0,0" /></g><g
           transform="translate(403.9434,414.3667)"
           id="g344"><path
             id="path346"
             style="fill:#ffe71f;fill-opacity:1;fill-rule:nonzero;stroke:none"
             d="m 0,0 c 0.124,0.015 0.245,0.029 0.37,0.043 l -3.138,23.254 c -0.15,-0.018 -0.294,-0.034 -0.443,-0.055 -13.095,-1.81 -25.522,-5.373 -37.091,-10.406 l 9.049,-21.649 C -21.514,-4.544 -11.041,-1.525 0,0" /></g><g
           transform="translate(468.5237,405.0558)"
           id="g348"><path
             id="path350"
             style="fill:#c2d83f;fill-opacity:1;fill-rule:nonzero;stroke:none"
             d="m 0,0 8.91,21.71 c -11.755,5.23 -24.286,8.899 -37.297,10.762 L -31.376,9.193 C -20.421,7.589 -9.876,4.461 0,0" /></g><g
           transform="translate(437.1481,414.249)"
           id="g352"><path
             id="path354"
             style="fill:#f9eb24;fill-opacity:1;fill-rule:nonzero;stroke:none"
             d="m 0,0 2.988,23.278 c -12.631,1.811 -25.71,1.926 -38.961,0.137 L -32.834,0.161 C -21.664,1.668 -10.64,1.553 0,0" /></g><g
           transform="translate(536.058,274.9111)"
           id="g356"><path
             id="path358"
             style="fill:#00b0cf;fill-opacity:1;fill-rule:nonzero;stroke:none"
             d="m 0,0 23.308,-2.992 c 2.176,11.85 2.856,24.142 1.859,36.636 L 1.873,30.501 C 2.59,20.091 1.918,9.857 0,0" /></g><g
           transform="translate(489.1954,201.6227)"
           id="g360"><path
             id="path362"
             style="fill:#2860ab;fill-opacity:1;fill-rule:nonzero;stroke:none"
             d="m 0,0 14.351,-18.576 c 9.572,7.01 18.19,15.176 25.683,24.261 L 21.368,19.911 C 15.12,12.45 7.945,5.753 0,0" /></g><g
           transform="translate(510.5632,221.5339)"
           id="g364"><path
             id="path366"
             style="fill:#007bbf;fill-opacity:1;fill-rule:nonzero;stroke:none"
             d="M 0,0 18.666,-14.226 C 26.249,-5.03 32.676,5.107 37.76,15.94 L 16.026,24.86 C 11.734,15.926 6.344,7.573 0,0" /></g><g
           transform="translate(526.5891,246.3938)"
           id="g368"><path
             id="path370"
             style="fill:#0094cb;fill-opacity:1;fill-rule:nonzero;stroke:none"
             d="m 0,0 21.734,-8.92 c 5.093,10.864 8.837,22.429 11.043,34.445 L 9.469,28.517 C 7.53,18.559 4.321,8.99 0,0" /></g><g
           transform="translate(331,219.9364)"
           id="g372"><path
             id="path374"
             style="fill:#ef426e;fill-opacity:1;fill-rule:nonzero;stroke:none"
             d="m 0,0 -18.596,-14.37 c 7.779,-9.097 16.677,-17.157 26.435,-24.01 l 14.227,18.666 C 13.936,-14.099 6.517,-7.476 0,0" /></g><g
           transform="translate(537.0984,313.5433)"
           id="g376"><path
             id="path378"
             style="fill:#00af78;fill-opacity:1;fill-rule:nonzero;stroke:none"
             d="m 0,0 c 0.376,-2.721 0.647,-5.433 0.832,-8.131 l 23.295,3.143 c -0.217,2.726 -0.506,5.459 -0.885,8.2 -1.353,9.798 -3.689,19.225 -6.887,28.196 L -5.336,22.342 C -2.881,15.209 -1.071,7.746 0,0" /></g><g
           transform="translate(517.5336,364.0979)"
           id="g380"><path
             id="path382"
             style="fill:#00ab59;fill-opacity:1;fill-rule:nonzero;stroke:none"
             d="m 0,0 c 5.913,-8.604 10.732,-18.067 14.228,-28.213 l 21.691,9.067 C 31.619,-7.083 25.756,4.157 18.597,14.362 Z" /></g><g
           transform="translate(463.8307,187.6633)"
           id="g384"><path
             id="path386"
             style="fill:#3c52a0;fill-opacity:1;fill-rule:nonzero;stroke:none"
             d="m 0,0 9.052,-21.655 c 11.02,4.428 21.297,10.178 30.664,17.038 L 25.365,13.959 C 17.606,8.338 9.106,3.629 0,0" /></g><g
           transform="translate(378.9619,186.6969)"
           id="g388"><path
             id="path390"
             style="fill:#bc4e9b;fill-opacity:1;fill-rule:nonzero;stroke:none"
             d="m 0,0 -8.911,-21.713 c 10.854,-4.124 22.293,-6.941 34.091,-8.284 l 2.988,23.283 C 18.427,-5.635 8.978,-3.354 0,0" /></g><g
           transform="translate(407.1301,179.9824)"
           id="g392"><path
             id="path394"
             style="fill:#864a9b;fill-opacity:1;fill-rule:nonzero;stroke:none"
             d="m 0,0 -2.989,-23.282 c 11.381,-1.292 23.097,-1.212 34.951,0.393 L 28.823,0.364 C 19.051,-0.957 9.391,-1.04 0,0" /></g><g
           transform="translate(353.0665,200.222)"
           id="g396"><path
             id="path398"
             style="fill:#ed3590;fill-opacity:1;fill-rule:nonzero;stroke:none"
             d="m 0,0 -14.227,-18.666 c 9.638,-6.768 20.118,-12.355 31.211,-16.572 l 8.911,21.713 C 16.706,-10.091 8.011,-5.531 0,0" /></g><g
           transform="translate(436.272,180.3876)"
           id="g400"><path
             id="path402"
             style="fill:#584c9c;fill-opacity:1;fill-rule:nonzero;stroke:none"
             d="M 0,0 C -0.109,-0.014 -0.213,-0.027 -0.319,-0.041 L 2.82,-23.294 c 0.13,0.016 0.261,0.032 0.39,0.05 11.713,1.617 22.893,4.643 33.401,8.865 L 27.559,7.276 C 18.882,3.814 9.658,1.334 0,0" /></g><g
           transform="translate(326.3638,284.4291)"
           id="g404"><path
             id="path406"
             style="fill:#f79465;fill-opacity:1;fill-rule:nonzero;stroke:none"
             d="m 0,0 c -0.814,5.884 -1.037,11.713 -0.767,17.443 l -23.359,2.997 c -0.49,-7.751 -0.22,-15.665 0.883,-23.652 0.345,-2.49 0.772,-4.945 1.265,-7.377 l 23.339,3.15 C 0.822,-4.995 0.348,-2.52 0,0" /></g><g
           transform="translate(341.6581,350.2044)"
           id="g408"><path
             id="path410"
             style="fill:#fbb25f;fill-opacity:1;fill-rule:nonzero;stroke:none"
             d="m 0,0 -18.684,14.244 c -6.075,-8.79 -10.973,-18.401 -14.502,-28.591 l 21.755,-8.928 C -8.692,-14.988 -4.83,-7.163 0,0" /></g><g
           transform="translate(330.2273,326.9291)"
           id="g412"><path
             id="path414"
             style="fill:#f9a461;fill-opacity:1;fill-rule:nonzero;stroke:none"
             d="m 0,0 -21.755,8.928 c -3.42,-9.869 -5.556,-20.274 -6.235,-30.988 l 23.359,-2.997 C -4.222,-16.406 -2.641,-7.989 0,0" /></g><g
           transform="translate(327.7246,276.9899)"
           id="g416"><path
             id="path418"
             style="fill:#f47c64;fill-opacity:1;fill-rule:nonzero;stroke:none"
             d="m 0,0 -23.339,-3.15 c 2.075,-10.232 5.439,-19.923 9.909,-28.918 l 21.721,9.079 C 4.603,-15.849 1.791,-8.145 0,0" /></g><g
           transform="translate(336.0156,254.0004)"
           id="g420"><path
             id="path422"
             style="fill:#f16165;fill-opacity:1;fill-rule:nonzero;stroke:none"
             d="m 0,0 -21.721,-9.078 c 4.514,-9.091 10.152,-17.471 16.705,-24.986 l 18.6,14.366 C 8.279,-13.785 3.71,-7.172 0,0" /></g><g
           transform="translate(407.157,391.1238)"
           id="g424"><path
             id="path426"
             style="fill:#ffea4c;fill-opacity:1;fill-rule:nonzero;stroke:none"
             d="m 0,0 c 0.099,0.015 0.196,0.021 0.297,0.034 l -3.14,23.252 c -0.126,-0.014 -0.246,-0.028 -0.371,-0.043 -11.04,-1.525 -21.514,-4.544 -31.252,-8.813 l 9.065,-21.68 C -17.495,-3.74 -8.989,-1.242 0,0" /></g><g
           transform="translate(459.6032,383.3231)"
           id="g428"><path
             id="path430"
             style="fill:#cede53;fill-opacity:1;fill-rule:nonzero;stroke:none"
             d="m 0,0 8.921,21.733 c -9.877,4.46 -20.422,7.589 -31.376,9.193 L -25.446,7.629 C -16.548,6.287 -7.998,3.688 0,0" /></g><g
           transform="translate(481.7319,369.1179)"
           id="g432"><path
             id="path434"
             style="fill:#a2cd4d;fill-opacity:1;fill-rule:nonzero;stroke:none"
             d="M 0,0 14.247,18.694 C 5.946,25.651 -3.295,31.462 -13.208,35.938 L -22.129,14.205 C -14.118,10.507 -6.669,5.724 0,0" /></g><g
           transform="translate(381.7557,383.8734)"
           id="g436"><path
             id="path438"
             style="fill:#ffda55;fill-opacity:1;fill-rule:nonzero;stroke:none"
             d="M 0,0 -9.065,21.681 C -19.207,17.229 -28.543,11.409 -36.88,4.489 l 14.361,-18.591 C -15.788,-8.419 -8.228,-3.652 0,0" /></g><g
           transform="translate(349.5997,234.3024)"
           id="g440"><path
             id="path442"
             style="fill:#f05b88;fill-opacity:1;fill-rule:nonzero;stroke:none"
             d="m 0,0 -18.6,-14.366 c 6.517,-7.476 13.937,-14.099 22.067,-19.714 l 14.242,18.687 C 11.209,-11.014 5.25,-5.853 0,0" /></g><g
           transform="translate(434.1569,390.9523)"
           id="g444"><path
             id="path446"
             style="fill:#fced57;fill-opacity:1;fill-rule:nonzero;stroke:none"
             d="m 0,0 2.991,23.297 c -10.64,1.553 -21.664,1.668 -32.834,0.161 l 3.14,-23.252 C -17.612,1.432 -8.65,1.304 0,0" /></g><g
           transform="translate(359.2365,369.7712)"
           id="g448"><path
             id="path450"
             style="fill:#fec55d;fill-opacity:1;fill-rule:nonzero;stroke:none"
             d="M 0,0 -14.361,18.591 C -22.739,11.644 -30.106,3.589 -36.262,-5.323 l 18.684,-14.244 C -12.665,-12.279 -6.747,-5.688 0,0" /></g><g
           transform="translate(513.8544,310.3327)"
           id="g452"><path
             id="path454"
             style="fill:#41bb98;fill-opacity:1;fill-rule:nonzero;stroke:none"
             d="m 0,0 c 0.373,-2.703 0.604,-5.393 0.743,-8.07 l 23.333,3.149 C 23.891,-2.222 23.62,0.49 23.244,3.211 22.173,10.956 20.363,18.419 17.908,25.552 L -3.82,16.47 C -2.092,11.187 -0.785,5.693 0,0" /></g><g
           transform="translate(512.7145,277.9056)"
           id="g456"><path
             id="path458"
             style="fill:#00b8d3;fill-opacity:1;fill-rule:nonzero;stroke:none"
             d="m 0,0 23.343,-2.994 c 1.918,9.856 2.59,20.09 1.873,30.5 L 1.883,24.357 C 2.317,16.034 1.659,7.861 0,0" /></g><g
           transform="translate(491.871,235.7799)"
           id="g460"><path
             id="path462"
             style="fill:#0090ce;fill-opacity:1;fill-rule:nonzero;stroke:none"
             d="m 0,0 18.692,-14.246 c 6.345,7.573 11.734,15.926 16.026,24.86 L 12.97,19.541 C 9.468,12.506 5.098,5.948 0,0" /></g><g
           transform="translate(504.8414,255.3208)"
           id="g464"><path
             id="path466"
             style="fill:#00a7d6;fill-opacity:1;fill-rule:nonzero;stroke:none"
             d="m 0,0 21.748,-8.927 c 4.321,8.99 7.53,18.559 9.469,28.517 L 7.873,22.585 C 6.205,14.687 3.541,7.106 0,0" /></g><g
           transform="translate(481.7319,369.1179)"
           id="g468"><path
             id="path470"
             style="fill:#6bbe53;fill-opacity:1;fill-rule:nonzero;stroke:none"
             d="M 0,0 C 6.554,-5.624 12.366,-12.128 17.206,-19.389 L 35.802,-5.02 C 29.699,3.86 22.431,11.833 14.247,18.694 Z" /></g><g
           transform="translate(510.0347,326.8024)"
           id="g472"><path
             id="path474"
             style="fill:#21b356;fill-opacity:1;fill-rule:nonzero;stroke:none"
             d="M 0,0 21.727,9.083 C 18.231,19.228 13.411,28.691 7.499,37.295 L -11.097,22.927 C -6.433,15.928 -2.69,8.23 0,0" /></g><g
           transform="translate(454.7733,209.3307)"
           id="g476"><path
             id="path478"
             style="fill:#5061aa;fill-opacity:1;fill-rule:nonzero;stroke:none"
             d="m 0,0 9.057,-21.667 c 9.107,3.628 17.606,8.338 25.365,13.959 L 20.061,10.882 C 13.906,6.502 7.19,2.832 0,0" /></g><g
           transform="translate(410.1192,203.2773)"
           id="g480"><path
             id="path482"
             style="fill:#9458a2;fill-opacity:1;fill-rule:nonzero;stroke:none"
             d="m 0,0 -2.989,-23.295 c 9.391,-1.04 19.05,-0.957 28.823,0.364 L 22.694,0.326 C 15.002,-0.715 7.4,-0.788 0,0" /></g><g
           transform="translate(387.8815,208.4298)"
           id="g484"><path
             id="path486"
             style="fill:#c45da2;fill-opacity:1;fill-rule:nonzero;stroke:none"
             d="m 0,0 -8.92,-21.733 c 8.979,-3.354 18.428,-5.635 28.169,-6.714 l 2.989,23.295 C 14.554,-4.336 7.099,-2.583 0,0" /></g><g
           transform="translate(433.0605,203.6317)"
           id="g488"><path
             id="path490"
             style="fill:#6c5aa4;fill-opacity:1;fill-rule:nonzero;stroke:none"
             d="m 0,0 c -0.082,-0.012 -0.164,-0.018 -0.247,-0.029 l 3.14,-23.256 c 0.105,0.013 0.21,0.026 0.319,0.041 9.657,1.334 18.881,3.814 27.558,7.276 L 21.713,5.699 C 14.865,3.005 7.607,1.048 0,0" /></g><g
           transform="translate(367.3089,218.9097)"
           id="g492"><path
             id="path494"
             style="fill:#e95aa0;fill-opacity:1;fill-rule:nonzero;stroke:none"
             d="m 0,0 -14.242,-18.688 c 8.01,-5.531 16.706,-10.09 25.895,-13.525 l 8.92,21.733 C 13.286,-7.821 6.38,-4.298 0,0" /></g><g
           transform="translate(474.8342,220.2129)"
           id="g496"><path
             id="path498"
             style="fill:#4274b8;fill-opacity:1;fill-rule:nonzero;stroke:none"
             d="m 0,0 14.361,-18.59 c 7.946,5.752 15.121,12.449 21.368,19.911 L 17.037,15.567 C 12.032,9.729 6.317,4.497 0,0" /></g><g
           transform="translate(368.2448,248.7067)"
           id="g500"><path
             id="path502"
             style="fill:#f27da4;fill-opacity:1;fill-rule:nonzero;stroke:none"
             d="m 0,0 -18.645,-14.404 c 5.249,-5.853 11.208,-11.015 17.709,-15.393 l 14.254,18.699 C 8.451,-7.957 3.975,-4.229 0,0" /></g><g
           transform="translate(349.607,287.6407)"
           id="g504"><path
             id="path506"
             style="fill:#f9ad86;fill-opacity:1;fill-rule:nonzero;stroke:none"
             d="m 0,0 c -0.524,3.782 -0.728,7.534 -0.652,11.234 l -23.358,2.997 c -0.27,-5.73 -0.047,-11.558 0.767,-17.443 0.347,-2.52 0.822,-4.995 1.361,-7.439 l 23.335,3.15 C 0.844,-5.052 0.354,-2.554 0,0" /></g><g
           transform="translate(352.0101,317.9904)"
           id="g508"><path
             id="path510"
             style="fill:#fbbb87;fill-opacity:1;fill-rule:nonzero;stroke:none"
             d="m 0,0 -21.783,8.939 c -2.641,-7.989 -4.222,-16.407 -4.631,-25.058 l 23.359,-2.997 C -2.921,-12.527 -1.858,-6.112 0,0" /></g><g
           transform="translate(357.7592,263.0896)"
           id="g512"><path
             id="path514"
             style="fill:#f4848b;fill-opacity:1;fill-rule:nonzero;stroke:none"
             d="m 0,0 -21.744,-9.089 c 3.711,-7.172 8.28,-13.785 13.584,-19.698 l 18.646,14.404 C 6.431,-10.076 2.896,-5.253 0,0" /></g><g
           transform="translate(351.0602,280.1401)"
           id="g516"><path
             id="path518"
             style="fill:#f69688;fill-opacity:1;fill-rule:nonzero;stroke:none"
             d="m 0,0 -23.336,-3.15 c 1.791,-8.145 4.603,-15.85 8.291,-22.99 l 21.744,9.089 C 3.786,-11.768 1.51,-6.061 0,0" /></g><g
           transform="translate(360.3585,335.9526)"
           id="g520"><path
             id="path522"
             style="fill:#fdc489;fill-opacity:1;fill-rule:nonzero;stroke:none"
             d="M 0,0 -18.7,14.252 C -23.53,7.089 -27.392,-0.737 -30.131,-9.023 l 21.783,-8.939 C -6.406,-11.579 -3.583,-5.538 0,0" /></g><g
           transform="translate(390.8049,362.229)"
           id="g524"><path
             id="path526"
             style="fill:#ffe37f;fill-opacity:1;fill-rule:nonzero;stroke:none"
             d="M 0,0 -9.049,21.644 C -17.277,17.992 -24.837,13.225 -31.568,7.542 l 14.352,-18.577 C -12.092,-6.593 -6.312,-2.859 0,0" /></g><g
           transform="translate(373.5893,351.1936)"
           id="g528"><path
             id="path530"
             style="fill:#ffd385;fill-opacity:1;fill-rule:nonzero;stroke:none"
             d="M 0,0 -14.353,18.578 C -21.099,12.89 -27.018,6.298 -31.931,-0.989 l 18.7,-14.252 C -9.568,-9.572 -5.115,-4.436 0,0" /></g><g
           transform="translate(450.6924,361.606)"
           id="g532"><path
             id="path534"
             style="fill:#dae47f;fill-opacity:1;fill-rule:nonzero;stroke:none"
             d="m 0,0 8.911,21.717 c -7.998,3.689 -16.548,6.287 -25.447,7.629 L -19.522,6.076 C -12.683,4.996 -6.119,2.925 0,0" /></g><g
           transform="translate(381.5626,237.6089)"
           id="g536"><path
             id="path538"
             style="fill:#f17db1;fill-opacity:1;fill-rule:nonzero;stroke:none"
             d="m 0,0 -14.254,-18.699 c 6.38,-4.298 13.286,-7.822 20.573,-10.48 L 15.236,-7.45 C 9.856,-5.573 4.743,-3.065 0,0" /></g><g
           transform="translate(410.3687,367.8811)"
           id="g540"><path
             id="path542"
             style="fill:#fff382;fill-opacity:1;fill-rule:nonzero;stroke:none"
             d="m 0,0 c 0.075,0.009 0.149,0.015 0.221,0.026 l -3.136,23.251 c -0.101,-0.013 -0.198,-0.019 -0.297,-0.034 -8.989,-1.242 -17.495,-3.74 -25.401,-7.251 l 9.049,-21.644 C -13.488,-2.906 -6.935,-0.959 0,0" /></g><g
           transform="translate(431.1705,367.6817)"
           id="g544"><path
             id="path546"
             style="fill:#fcf184;fill-opacity:1;fill-rule:nonzero;stroke:none"
             d="m 0,0 2.986,23.271 c -8.65,1.304 -17.612,1.432 -26.703,0.206 L -20.581,0.225 C -13.572,1.171 -6.657,1.05 0,0" /></g><g
           transform="translate(429.8506,226.8727)"
           id="g548"><path
             id="path550"
             style="fill:#8871b2;fill-opacity:1;fill-rule:nonzero;stroke:none"
             d="M 0,0 C -0.057,-0.008 -0.116,-0.013 -0.174,-0.019 L 2.963,-23.27 c 0.083,0.011 0.165,0.017 0.247,0.029 7.607,1.048 14.865,3.005 21.713,5.699 L 15.871,4.113 C 10.854,2.177 5.551,0.766 0,0" /></g><g
           transform="translate(490.6114,307.1231)"
           id="g552"><path
             id="path554"
             style="fill:#5cc1a2;fill-opacity:1;fill-rule:nonzero;stroke:none"
             d="m 0,0 c 0.371,-2.69 0.575,-5.359 0.638,-8.01 l 23.348,3.15 c -0.139,2.677 -0.37,5.367 -0.743,8.07 -0.785,5.693 -2.092,11.187 -3.82,16.469 L -2.293,10.599 C -1.276,7.178 -0.502,3.64 0,0" /></g><g
           transform="translate(488.3186,317.7224)"
           id="g556"><path
             id="path558"
             style="fill:#60bd6e;fill-opacity:1;fill-rule:nonzero;stroke:none"
             d="m 0,0 21.716,9.08 c -2.69,8.23 -6.433,15.928 -11.097,22.927 L -8.025,17.607 C -4.614,12.214 -1.88,6.317 0,0" /></g><g
           transform="translate(489.3314,280.9054)"
           id="g560"><path
             id="path562"
             style="fill:#46c4d9;fill-opacity:1;fill-rule:nonzero;stroke:none"
             d="m 0,0 23.383,-3 c 1.659,7.861 2.317,16.034 1.883,24.358 L 1.918,18.208 C 2.075,11.972 1.402,5.868 0,0" /></g><g
           transform="translate(396.7986,230.159)"
           id="g564"><path
             id="path566"
             style="fill:#c377b0;fill-opacity:1;fill-rule:nonzero;stroke:none"
             d="m 0,0 -8.917,-21.729 c 7.098,-2.583 14.554,-4.337 22.238,-5.153 l 2.988,23.283 C 10.686,-3.044 5.219,-1.818 0,0" /></g><g
           transform="translate(480.2939,335.3295)"
           id="g568"><path
             id="path570"
             style="fill:#8ac870;fill-opacity:1;fill-rule:nonzero;stroke:none"
             d="M 0,0 18.644,14.399 C 13.805,21.66 7.992,28.165 1.438,33.788 L -12.809,15.099 C -7.888,10.712 -3.568,5.635 0,0" /></g><g
           transform="translate(483.0568,264.2608)"
           id="g572"><path
             id="path574"
             style="fill:#42bddc;fill-opacity:1;fill-rule:nonzero;stroke:none"
             d="m 0,0 21.785,-8.94 c 3.541,7.106 6.205,14.687 7.873,22.585 l -23.383,3 C 4.879,10.814 2.76,5.228 0,0" /></g><g
           transform="translate(459.6032,383.3231)"
           id="g576"><path
             id="path578"
             style="fill:#bbd876;fill-opacity:1;fill-rule:nonzero;stroke:none"
             d="m 0,0 -8.911,-21.717 c 6.104,-2.919 11.759,-6.689 16.792,-11.177 l 14.248,18.689 C 15.46,-8.481 8.011,-3.699 0,0" /></g><g
           transform="translate(473.1809,250.0266)"
           id="g580"><path
             id="path582"
             style="fill:#50a9db;fill-opacity:1;fill-rule:nonzero;stroke:none"
             d="m 0,0 18.69,-14.247 c 5.098,5.949 9.468,12.506 12.971,19.541 L 9.876,14.234 C 7.169,9.104 3.851,4.321 0,0" /></g><g
           transform="translate(445.7215,230.9858)"
           id="g584"><path
             id="path586"
             style="fill:#6d79b9;fill-opacity:1;fill-rule:nonzero;stroke:none"
             d="m 0,0 9.052,-21.655 c 7.189,2.832 13.906,6.502 20.061,10.882 L 14.759,7.808 C 10.216,4.664 5.272,2.035 0,0" /></g><g
           transform="translate(460.4807,238.7935)"
           id="g588"><path
             id="path590"
             style="fill:#6d90ca;fill-opacity:1;fill-rule:nonzero;stroke:none"
             d="m 0,0 14.353,-18.581 c 6.317,4.497 12.033,9.73 17.037,15.567 L 12.7,11.233 C 8.944,7.016 4.685,3.24 0,0" /></g><g
           transform="translate(413.1079,226.5596)"
           id="g592"><path
             id="path594"
             style="fill:#ab73b0;fill-opacity:1;fill-rule:nonzero;stroke:none"
             d="m 0,0 -2.989,-23.282 c 7.4,-0.789 15.002,-0.715 22.695,0.326 L 16.569,0.294 C 10.955,-0.466 5.409,-0.538 0,0" /></g><g
           transform="translate(379.5936,272.2169)"
           id="g596"><path
             id="path598"
             style="fill:#f7a6ac;fill-opacity:1;fill-rule:nonzero;stroke:none"
             d="m 0,0 -21.834,-9.127 c 2.896,-5.254 6.431,-10.077 10.485,-14.383 L 7.337,-9.072 C 4.549,-6.377 2.079,-3.334 0,0" /></g><g
           transform="translate(374.5292,283.306)"
           id="g600"><path
             id="path602"
             style="fill:#f9b8ae;fill-opacity:1;fill-rule:nonzero;stroke:none"
             d="m 0,0 -23.469,-3.166 c 1.51,-6.061 3.787,-11.768 6.699,-17.05 l 21.834,9.127 C 2.939,-7.671 1.222,-3.959 0,0" /></g><g
           transform="translate(372.8511,290.8522)"
           id="g604"><path
             id="path606"
             style="fill:#fcc9ab;fill-opacity:1;fill-rule:nonzero;stroke:none"
             d="m 0,0 c -0.232,1.679 -0.369,3.35 -0.424,5.009 l -23.472,3.013 c -0.076,-3.699 0.128,-7.452 0.652,-11.233 0.353,-2.555 0.844,-5.053 1.453,-7.501 L 1.678,-7.546 C 0.93,-5.114 0.36,-2.597 0,0" /></g><g
           transform="translate(395.8404,256.3408)"
           id="g608"><path
             id="path610"
             style="fill:#f49fc4;fill-opacity:1;fill-rule:nonzero;stroke:none"
             d="m 0,0 -14.278,-18.732 c 4.743,-3.065 9.857,-5.572 15.236,-7.45 L 9.88,-4.443 C 6.411,-3.338 3.101,-1.836 0,0" /></g><g
           transform="translate(386.9311,263.1447)"
           id="g612"><path
             id="path614"
             style="fill:#f6a3bf;fill-opacity:1;fill-rule:nonzero;stroke:none"
             d="m 0,0 -18.686,-14.438 c 3.975,-4.229 8.451,-7.957 13.318,-11.098 L 8.909,-6.804 C 5.685,-4.892 2.696,-2.607 0,0" /></g><g
           transform="translate(413.5804,344.639)"
           id="g616"><path
             id="path618"
             style="fill:#fff7ac;fill-opacity:1;fill-rule:nonzero;stroke:none"
             d="M 0,0 C 0.049,0.006 0.098,0.01 0.147,0.015 L -2.991,23.268 C -3.063,23.257 -3.137,23.252 -3.212,23.242 -10.147,22.283 -16.7,20.336 -22.775,17.59 l 9.048,-21.651 C -9.485,-2.07 -4.879,-0.675 0,0" /></g><g
           transform="translate(428.1815,344.3956)"
           id="g620"><path
             id="path622"
             style="fill:#fcf6ae;fill-opacity:1;fill-rule:nonzero;stroke:none"
             d="m 0,0 2.989,23.286 c -6.657,1.05 -13.572,1.171 -20.581,0.225 L -14.454,0.258 C -9.523,0.924 -4.664,0.808 0,0" /></g><g
           transform="translate(373.8574,309.0219)"
           id="g624"><path
             id="path626"
             style="fill:#fdd1ad;fill-opacity:1;fill-rule:nonzero;stroke:none"
             d="m 0,0 -21.847,8.969 c -1.859,-6.113 -2.921,-12.528 -3.055,-19.116 L -1.43,-13.161 C -1.579,-8.643 -1.069,-4.223 0,0" /></g><g
           transform="translate(405.7207,251.8974)"
           id="g628"><path
             id="path630"
             style="fill:#e8a5c9;fill-opacity:1;fill-rule:nonzero;stroke:none"
             d="m 0,0 -8.922,-21.738 c 5.219,-1.819 10.686,-3.045 16.309,-3.6 l 2.99,23.286 C 6.812,-1.751 3.333,-1.059 0,0" /></g><g
           transform="translate(399.8533,340.5782)"
           id="g632"><path
             id="path634"
             style="fill:#ffeea9;fill-opacity:1;fill-rule:nonzero;stroke:none"
             d="M 0,0 -9.048,21.651 C -15.361,18.792 -21.14,15.058 -26.264,10.615 L -11.897,-7.983 C -8.389,-4.775 -4.393,-2.063 0,0" /></g><g
           transform="translate(387.9564,332.5949)"
           id="g636"><path
             id="path638"
             style="fill:#ffe0ad;fill-opacity:1;fill-rule:nonzero;stroke:none"
             d="M 0,0 -14.367,18.599 C -19.483,14.162 -23.935,9.027 -27.598,3.358 L -8.866,-10.916 C -6.463,-6.87 -3.476,-3.185 0,0" /></g><g
           transform="translate(379.0899,321.6788)"
           id="g640"><path
             id="path642"
             style="fill:#fed9ae;fill-opacity:1;fill-rule:nonzero;stroke:none"
             d="M 0,0 -18.731,14.274 C -22.314,8.735 -25.137,2.695 -27.08,-3.688 l 21.847,-8.969 C -4.097,-8.177 -2.325,-3.919 0,0" /></g><g
           transform="translate(436.6666,252.6411)"
           id="g644"><path
             id="path646"
             style="fill:#979fcf;fill-opacity:1;fill-rule:nonzero;stroke:none"
             d="m 0,0 9.055,-21.655 c 5.272,2.035 10.216,4.664 14.759,7.807 L 9.449,4.749 C 6.52,2.838 3.358,1.24 0,0" /></g><g
           transform="translate(416.0979,249.8456)"
           id="g648"><path
             id="path650"
             style="fill:#c799c6;fill-opacity:1;fill-rule:nonzero;stroke:none"
             d="m 0,0 -2.99,-23.286 c 5.409,-0.537 10.955,-0.466 16.569,0.294 L 10.439,0.261 C 6.908,-0.219 3.414,-0.288 0,0" /></g><g
           transform="translate(466.4803,308.5955)"
           id="g652"><path
             id="path654"
             style="fill:#95cf99;fill-opacity:1;fill-rule:nonzero;stroke:none"
             d="m 0,0 21.838,9.127 c -1.88,6.317 -4.613,12.214 -8.024,17.607 L -4.875,12.299 C -2.721,8.514 -1.059,4.393 0,0" /></g><g
           transform="translate(461.605,320.8942)"
           id="g656"><path
             id="path658"
             style="fill:#d6eac6;fill-opacity:1;fill-rule:nonzero;stroke:none"
             d="m 0,0 18.689,14.435 c -3.568,5.636 -7.888,10.712 -12.81,15.1 L -8.397,10.802 C -5.12,7.645 -2.282,4.012 0,0" /></g><g
           transform="translate(453.2084,331.6958)"
           id="g660"><path
             id="path662"
             style="fill:#cfe3a1;fill-opacity:1;fill-rule:nonzero;stroke:none"
             d="M 0,0 14.276,18.733 C 9.243,23.221 3.587,26.991 -2.516,29.91 L -11.444,8.162 C -7.247,6.016 -3.392,3.262 0,0" /></g><g
           transform="translate(428.1815,344.3956)"
           id="g664"><path
             id="path666"
             style="fill:#e6eca4;fill-opacity:1;fill-rule:nonzero;stroke:none"
             d="M 0,0 C 4.78,-0.821 9.354,-2.371 13.583,-4.538 L 22.511,17.21 C 16.392,20.135 9.828,22.207 2.989,23.286 Z" /></g><g
           transform="translate(467.3693,303.9115)"
           id="g668"><path
             id="path670"
             style="fill:#8bcfbb;fill-opacity:1;fill-rule:nonzero;stroke:none"
             d="m 0,0 c 0.372,-2.684 0.497,-5.342 0.419,-7.964 l 23.461,3.166 c -0.063,2.651 -0.267,5.32 -0.638,8.01 -0.501,3.64 -1.276,7.177 -2.293,10.599 L -0.889,4.684 C -0.52,3.154 -0.22,1.592 0,0" /></g><g
           transform="translate(465.8636,283.9215)"
           id="g672"><path
             id="path674"
             style="fill:#8ad4e4;fill-opacity:1;fill-rule:nonzero;stroke:none"
             d="m 0,0 23.468,-3.016 c 1.402,5.868 2.075,11.972 1.918,18.207 L 1.925,12.026 C 1.803,7.887 1.14,3.851 0,0" /></g><g
           transform="translate(426.6382,250.1171)"
           id="g676"><path
             id="path678"
             style="fill:#b098c8;fill-opacity:1;fill-rule:nonzero;stroke:none"
             d="m 0,0 c -0.033,-0.004 -0.066,-0.01 -0.101,-0.01 l 3.139,-23.253 c 0.058,0.006 0.117,0.01 0.174,0.019 5.551,0.766 10.854,2.177 15.871,4.113 L 10.028,2.524 C 6.849,1.346 3.498,0.483 0,0" /></g><g
           transform="translate(446.1153,257.3902)"
           id="g680"><path
             id="path682"
             style="fill:#96b3dd;fill-opacity:1;fill-rule:nonzero;stroke:none"
             d="m 0,0 14.365,-18.597 c 4.686,3.24 8.945,7.016 12.701,11.233 L 8.334,6.913 C 5.836,4.315 3.046,1.99 0,0" /></g><g
           transform="translate(461.2148,273.2239)"
           id="g684"><path
             id="path686"
             style="fill:#85cfe4;fill-opacity:1;fill-rule:nonzero;stroke:none"
             d="m 0,0 21.842,-8.963 c 2.76,5.228 4.879,10.814 6.275,16.644 L 4.649,10.698 C 3.537,6.933 1.969,3.342 0,0" /></g><g
           transform="translate(454.4489,264.3034)"
           id="g688"><path
             id="path690"
             style="fill:#85c3e8;fill-opacity:1;fill-rule:nonzero;stroke:none"
             d="m 0,0 18.732,-14.277 c 3.851,4.321 7.169,9.104 9.876,14.234 L 6.766,8.921 C 4.865,5.696 2.594,2.702 0,0" /></g><path
           id="path692"
           style="fill:#d43872;fill-opacity:1;fill-rule:nonzero;stroke:none"
           d="m 775.852,31.693 h 3.625 v 0.837 h -3.625 z" /><g
           transform="translate(789.9325,43.1671)"
           id="g694"><path
             id="path696"
             style="fill:#d43872;fill-opacity:1;fill-rule:nonzero;stroke:none"
             d="m 0,0 c 0.064,-0.174 0.096,-0.561 0.096,-1.159 v -0.846 h -1.028 v 0.846 c 0,0.651 0.029,1.05 0.087,1.198 0.058,0.148 0.209,0.222 0.453,0.222 C -0.194,0.261 -0.064,0.174 0,0 M -2.702,1.843 C -3.323,1.533 -3.771,1.085 -4.044,0.501 -4.317,-0.083 -4.453,-0.88 -4.453,-1.891 v -3.373 c 0,-0.86 0.06,-1.515 0.183,-1.965 0.122,-0.451 0.341,-0.863 0.657,-1.238 0.317,-0.375 0.76,-0.67 1.33,-0.885 0.569,-0.215 1.225,-0.322 1.97,-0.322 0.766,0 1.404,0.109 1.912,0.327 0.508,0.218 0.929,0.544 1.26,0.98 0.331,0.436 0.541,0.846 0.632,1.229 0.09,0.384 0.135,0.933 0.135,1.647 v 0.855 H 0.288 v -1.526 c 0,-0.575 -0.045,-0.963 -0.135,-1.163 -0.09,-0.2 -0.269,-0.301 -0.536,-0.301 -0.215,0 -0.361,0.075 -0.436,0.226 -0.075,0.152 -0.113,0.489 -0.113,1.012 v 2.501 h 4.558 v 1.534 c 0,1.121 -0.129,1.992 -0.388,2.61 C 2.979,0.876 2.529,1.373 1.887,1.747 1.245,2.122 0.43,2.31 -0.557,2.31 -1.366,2.31 -2.08,2.154 -2.702,1.843" /></g><g
           transform="translate(773.8442,22.6899)"
           id="g698"><path
             id="path700"
             style="fill:#d43872;fill-opacity:1;fill-rule:nonzero;stroke:none"
             d="m 0,0 v 6.467 h 0.95 v 1.83 H 0 V 9.84 H -3.53 V 8.297 H -4.288 V 6.467 H -3.53 V 0.314 c 0,-1.151 0.032,-1.881 0.096,-2.192 0.064,-0.311 0.226,-0.587 0.488,-0.828 0.261,-0.241 0.564,-0.395 0.907,-0.462 0.342,-0.067 0.914,-0.1 1.716,-0.1 h 1.421 v 1.865 c -0.575,0 -0.902,0.044 -0.981,0.13 C 0.039,-1.185 0,-0.762 0,0" /></g><g
           transform="translate(771.6218,34.0027)"
           id="g702"><path
             id="path704"
             style="fill:#d43872;fill-opacity:1;fill-rule:nonzero;stroke:none"
             d="m 0,0 c 0.581,-0.34 1.368,-0.51 2.362,-0.51 0.778,0 1.432,0.124 1.961,0.371 0.528,0.247 0.957,0.613 1.286,1.098 0.328,0.485 0.522,0.958 0.583,1.42 0.061,0.462 0.095,1.155 0.1,2.079 H 3.155 V 3.081 C 3.155,2.482 3.113,2.076 3.028,1.861 2.944,1.646 2.783,1.538 2.545,1.538 2.341,1.538 2.188,1.642 2.083,1.848 1.979,2.054 1.926,2.363 1.926,2.776 v 5.456 c 0,0.505 0.035,0.83 0.104,0.976 0.07,0.145 0.207,0.218 0.411,0.218 0.203,0 0.342,-0.083 0.417,-0.249 C 2.934,9.012 2.972,8.697 2.972,8.232 V 6.898 h 3.32 C 6.292,7.985 6.185,8.825 5.97,9.417 5.755,10.01 5.322,10.501 4.671,10.89 4.02,11.279 3.236,11.474 2.318,11.474 1.394,11.474 0.61,11.278 -0.035,10.886 -0.68,10.493 -1.102,10.047 -1.299,9.548 -1.496,9.048 -1.595,8.307 -1.595,7.325 V 4.04 c 0,-1.128 0.12,-1.998 0.362,-2.61 C -0.992,0.817 -0.581,0.34 0,0" /></g><path
           id="path706"
           style="fill:#d43872;fill-opacity:1;fill-rule:nonzero;stroke:none"
           d="m 775.852,19.422 h 3.625 v 11.565 h -3.625 z" /><g
           transform="translate(784.8231,27.0813)"
           id="g708"><path
             id="path710"
             style="fill:#d43872;fill-opacity:1;fill-rule:nonzero;stroke:none"
             d="M 0,0 C -0.187,-2.405 -0.319,-3.918 -0.397,-4.539 L -1.388,3.905 H -4.532 L -2.763,-7.66 H 1.838 L 3.486,3.905 H 0.342 C 0.214,2.645 0.1,1.342 0,0" /></g><g
           transform="translate(793.5502,22.4631)"
           id="g712"><path
             id="path714"
             style="fill:#d43872;fill-opacity:1;fill-rule:nonzero;stroke:none"
             d="m 0,0 c 0,-0.5 -0.034,-0.825 -0.1,-0.976 -0.067,-0.151 -0.205,-0.226 -0.414,-0.226 -0.204,0 -0.341,0.082 -0.41,0.248 -0.07,0.166 -0.105,0.522 -0.105,1.067 v 5.221 c 0,0.593 0.035,0.966 0.105,1.12 0.069,0.154 0.209,0.231 0.418,0.231 0.209,0 0.346,-0.077 0.41,-0.231 C -0.032,6.3 0,5.927 0,5.334 Z M 2.719,7.461 C 2.411,7.838 1.974,8.145 1.408,8.38 0.841,8.615 0.162,8.733 -0.628,8.733 -1.569,8.733 -2.342,8.55 -2.946,8.184 -3.55,7.818 -3.969,7.333 -4.201,6.728 -4.433,6.124 -4.55,5.285 -4.55,4.21 V 1.246 c 0,-0.981 0.064,-1.718 0.192,-2.208 0.128,-0.492 0.342,-0.91 0.64,-1.256 0.3,-0.346 0.72,-0.604 1.26,-0.776 0.54,-0.171 1.2,-0.257 1.979,-0.257 0.697,0 1.314,0.101 1.852,0.301 0.537,0.201 0.977,0.512 1.32,0.933 0.342,0.421 0.567,0.874 0.671,1.36 0.105,0.484 0.157,1.247 0.157,2.287 v 2.833 c 0,0.819 -0.057,1.429 -0.17,1.83 -0.113,0.401 -0.324,0.79 -0.632,1.168" /></g><g
           transform="translate(798.9706,36.8224)"
           id="g716"><path
             id="path718"
             style="fill:#d43872;fill-opacity:1;fill-rule:nonzero;stroke:none"
             d="m 0,0 c 0,-0.581 -0.034,-0.94 -0.1,-1.076 -0.067,-0.137 -0.211,-0.205 -0.432,-0.205 -0.232,0 -0.387,0.086 -0.466,0.261 -0.078,0.174 -0.117,0.561 -0.117,1.159 0,0.523 0.045,0.924 0.135,1.203 0.089,0.279 0.416,0.625 0.98,1.037 z M 2.249,8.022 C 1.644,8.444 0.747,8.654 -0.444,8.654 -1.438,8.654 -2.246,8.468 -2.867,8.096 -3.489,7.725 -3.903,7.296 -4.109,6.811 -4.316,6.326 -4.419,5.636 -4.419,4.741 V 3.966 h 3.304 v 1.211 c 0,0.645 0.029,1.044 0.087,1.198 0.057,0.154 0.206,0.231 0.444,0.231 0.21,0 0.359,-0.091 0.449,-0.274 C -0.045,6.149 0,5.755 0,5.15 0,4.668 -0.041,4.349 -0.122,4.192 -0.204,4.035 -0.822,3.73 -1.978,3.277 -3.059,2.859 -3.736,2.492 -4.009,2.179 -4.282,1.865 -4.419,1.275 -4.419,0.409 V -0.54 c 0,-1.169 0.258,-1.925 0.772,-2.271 0.514,-0.346 1.079,-0.519 1.695,-0.519 0.471,0 0.876,0.104 1.216,0.311 0.34,0.206 0.617,0.516 0.832,0.929 V -3.12 H 3.521 V 2.684 C 3.521,4.596 3.46,5.858 3.338,6.471 3.216,7.084 2.853,7.601 2.249,8.022" /></g><g
           transform="translate(782.7159,38.2688)"
           id="g720"><path
             id="path722"
             style="fill:#d43872;fill-opacity:1;fill-rule:nonzero;stroke:none"
             d="M 0,0 C 0,1.121 0.035,1.838 0.105,2.148 0.174,2.459 0.36,2.702 0.663,2.876 0.965,3.05 1.438,3.138 2.083,3.138 v 4.07 C 1.113,7.144 0.372,6.567 -0.139,5.478 L 0,6.999 H -3.521 V -4.567 H 0 Z" /></g><g
           transform="translate(812.5497,50.5482)"
           id="g724"><path
             id="path726"
             style="fill:#d43872;fill-opacity:1;fill-rule:nonzero;stroke:none"
             d="m 0,0 c 0,-0.5 -0.034,-0.825 -0.101,-0.976 -0.066,-0.151 -0.204,-0.227 -0.413,-0.227 -0.204,0 -0.34,0.083 -0.41,0.249 -0.07,0.166 -0.105,0.521 -0.105,1.067 v 5.221 c 0,0.592 0.035,0.966 0.105,1.12 0.07,0.154 0.209,0.231 0.418,0.231 0.209,0 0.346,-0.077 0.41,-0.231 C -0.032,6.3 0,5.926 0,5.334 Z M 3.351,6.293 C 3.238,6.693 3.027,7.082 2.719,7.46 2.411,7.838 1.974,8.145 1.407,8.38 0.841,8.615 0.162,8.733 -0.628,8.733 -1.569,8.733 -2.342,8.55 -2.946,8.184 -3.55,7.818 -3.969,7.332 -4.201,6.728 -4.434,6.124 -4.55,5.284 -4.55,4.21 V 1.246 c 0,-0.982 0.064,-1.718 0.192,-2.209 0.128,-0.491 0.341,-0.91 0.64,-1.255 0.3,-0.346 0.719,-0.604 1.26,-0.776 0.54,-0.171 1.199,-0.257 1.979,-0.257 0.696,0 1.314,0.101 1.852,0.301 0.537,0.2 0.977,0.511 1.32,0.932 0.342,0.422 0.567,0.875 0.671,1.36 0.105,0.485 0.157,1.248 0.157,2.288 v 2.833 c 0,0.819 -0.057,1.428 -0.17,1.83" /></g><g
           transform="translate(787.1745,51.9688)"
           id="g728"><path
             id="path730"
             style="fill:#d43872;fill-opacity:1;fill-rule:nonzero;stroke:none"
             d="m 0,0 c 0.09,0.279 0.417,0.625 0.98,1.037 v -2.379 c 0,-0.581 -0.033,-0.94 -0.1,-1.076 -0.066,-0.137 -0.211,-0.205 -0.431,-0.205 -0.233,0 -0.388,0.087 -0.467,0.261 -0.078,0.174 -0.117,0.561 -0.117,1.159 0,0.523 0.045,0.924 0.135,1.203 m -2.667,-4.153 c 0.514,-0.346 1.079,-0.519 1.695,-0.519 0.471,0 0.876,0.104 1.216,0.311 0.34,0.206 0.617,0.516 0.832,0.929 v -1.03 H 4.501 V 1.342 C 4.501,3.254 4.44,4.516 4.318,5.129 4.196,5.742 3.833,6.259 3.229,6.68 2.624,7.102 1.727,7.312 0.536,7.312 -0.458,7.312 -1.265,7.126 -1.887,6.754 -2.509,6.382 -2.923,5.954 -3.129,5.469 -3.335,4.984 -3.439,4.294 -3.439,3.399 V 2.624 h 3.304 v 1.211 c 0,0.645 0.029,1.044 0.087,1.198 0.058,0.154 0.206,0.231 0.444,0.231 0.21,0 0.359,-0.091 0.449,-0.274 C 0.935,4.807 0.98,4.413 0.98,3.809 0.98,3.326 0.939,3.007 0.859,2.85 0.777,2.693 0.158,2.388 -0.998,1.935 -2.079,1.517 -2.756,1.15 -3.029,0.837 c -0.273,-0.314 -0.41,-0.904 -0.41,-1.77 v -0.949 c 0,-1.168 0.258,-1.925 0.772,-2.271" /></g><g
           transform="translate(796.4084,52.0734)"
           id="g732"><path
             id="path734"
             style="fill:#d43872;fill-opacity:1;fill-rule:nonzero;stroke:none"
             d="M 0,0 C 0,1.121 0.035,1.838 0.105,2.148 0.174,2.459 0.36,2.702 0.662,2.876 0.965,3.05 1.438,3.138 2.083,3.138 V 7.207 C 1.113,7.143 0.372,6.567 -0.14,5.478 L 0,6.998 H -3.521 V -4.567 H 0 Z" /></g><g
           transform="translate(807.0583,54.7052)"
           id="g736"><path
             id="path738"
             style="fill:#d43872;fill-opacity:1;fill-rule:nonzero;stroke:none"
             d="M 0,0 C 0,1.087 -0.107,1.926 -0.322,2.519 -0.537,3.112 -0.97,3.603 -1.621,3.992 -2.272,4.381 -3.056,4.576 -3.974,4.576 -4.898,4.576 -5.683,4.38 -6.327,3.988 -6.972,3.595 -7.394,3.15 -7.591,2.65 -7.789,2.15 -7.887,1.409 -7.887,0.427 v -3.285 c 0,-1.128 0.12,-1.998 0.362,-2.611 0.241,-0.613 0.651,-1.089 1.233,-1.429 0.581,-0.34 1.368,-0.51 2.362,-0.51 0.778,0 1.432,0.124 1.96,0.37 0.529,0.247 0.958,0.613 1.286,1.099 0.328,0.485 0.523,0.959 0.584,1.42 0.061,0.462 0.094,1.155 0.1,2.079 h -3.137 v -1.377 c 0,-0.599 -0.043,-1.005 -0.127,-1.22 -0.084,-0.215 -0.245,-0.323 -0.483,-0.323 -0.204,0 -0.358,0.103 -0.462,0.31 -0.105,0.206 -0.158,0.515 -0.158,0.928 v 5.456 c 0,0.505 0.036,0.831 0.105,0.976 0.07,0.145 0.207,0.218 0.41,0.218 0.203,0 0.343,-0.083 0.418,-0.249 0.076,-0.165 0.114,-0.48 0.114,-0.945 L -3.32,0 Z" /></g><g
           transform="translate(773.5475,55.5249)"
           id="g740"><path
             id="path742"
             style="fill:#d43872;fill-opacity:1;fill-rule:nonzero;stroke:none"
             d="m 0,0 c 0,0.558 0.006,0.922 0.018,1.094 0.011,0.171 0.072,0.316 0.183,0.435 0.11,0.119 0.244,0.179 0.401,0.179 0.249,0 0.402,-0.113 0.457,-0.34 0.055,-0.226 0.083,-0.906 0.083,-2.039 v -7.347 h 3.416 v 7.539 c 0,0.993 0.037,1.606 0.109,1.839 C 4.74,1.592 4.901,1.708 5.151,1.708 5.395,1.708 5.55,1.59 5.617,1.355 5.684,1.12 5.718,0.508 5.718,-0.479 V -8.018 H 9.134 V 0.2 C 9.134,1.147 9.079,1.832 8.969,2.253 8.858,2.674 8.607,3.03 8.215,3.32 7.822,3.611 7.327,3.756 6.728,3.756 6.275,3.756 5.863,3.647 5.491,3.429 5.119,3.211 4.785,2.883 4.489,2.447 3.948,3.32 3.208,3.756 2.266,3.756 1.784,3.756 1.354,3.647 0.976,3.429 0.599,3.211 0.273,2.883 0,2.447 l 0.061,1.1 H -3.416 V -8.018 H 0 Z" /></g><g
           transform="translate(799.8926,21.2755)"
           id="g744"><path
             id="path746"
             style="fill:#d43872;fill-opacity:1;fill-rule:nonzero;stroke:none"
             d="m 0,0 c -0.063,-0.041 -0.168,-0.061 -0.316,-0.061 h -0.257 v 0.535 h 0.249 c 0.147,0 0.253,-0.023 0.319,-0.067 C 0.061,0.363 0.094,0.293 0.094,0.196 0.094,0.106 0.063,0.04 0,0 m 0.407,0.229 c 0,0.146 -0.056,0.256 -0.17,0.33 C 0.124,0.633 -0.045,0.67 -0.27,0.67 h -0.607 v -1.61 h 0.304 v 0.687 h 0.299 L 0.054,-0.94 h 0.345 l -0.364,0.735 c 0.117,0.021 0.208,0.069 0.274,0.147 0.065,0.076 0.098,0.172 0.098,0.287" /></g><g
           transform="translate(800.7386,20.6345)"
           id="g748"><path
             id="path750"
             style="fill:#d43872;fill-opacity:1;fill-rule:nonzero;stroke:none"
             d="m 0,0 c -0.062,-0.148 -0.151,-0.278 -0.265,-0.391 -0.12,-0.117 -0.258,-0.207 -0.413,-0.27 -0.154,-0.062 -0.316,-0.093 -0.484,-0.093 -0.159,0 -0.314,0.032 -0.466,0.096 -0.152,0.065 -0.286,0.155 -0.404,0.272 -0.116,0.115 -0.205,0.247 -0.268,0.396 -0.063,0.15 -0.095,0.306 -0.095,0.468 0,0.165 0.033,0.324 0.098,0.477 0.065,0.153 0.157,0.289 0.276,0.408 0.113,0.114 0.244,0.2 0.393,0.261 0.15,0.06 0.309,0.09 0.477,0.09 0.168,0 0.328,-0.031 0.481,-0.093 C -0.516,1.558 -0.382,1.47 -0.265,1.356 -0.148,1.238 -0.059,1.102 0.002,0.951 0.063,0.8 0.093,0.639 0.093,0.467 0.093,0.303 0.062,0.148 0,0 m -0.277,1.604 c -0.125,0.097 -0.261,0.17 -0.41,0.22 C -0.835,1.875 -0.99,1.9 -1.151,1.9 -1.374,1.9 -1.582,1.853 -1.773,1.761 -1.965,1.668 -2.129,1.535 -2.265,1.36 -2.365,1.23 -2.442,1.09 -2.494,0.939 -2.546,0.789 -2.572,0.635 -2.572,0.478 c 0,-0.186 0.036,-0.365 0.107,-0.537 0.072,-0.172 0.174,-0.324 0.308,-0.458 0.136,-0.137 0.291,-0.243 0.466,-0.316 0.174,-0.073 0.354,-0.11 0.54,-0.11 0.184,0 0.363,0.036 0.537,0.109 0.173,0.072 0.33,0.177 0.47,0.313 0.135,0.13 0.238,0.281 0.309,0.452 0.07,0.172 0.106,0.355 0.106,0.547 0,0.223 -0.048,0.432 -0.144,0.629 -0.096,0.197 -0.231,0.363 -0.404,0.497" /></g></g></g></g></svg>